<svg xmlns="http://www.w3.org/2000/svg" viewBox="0 0 32 32" width="32" height="32"><circle cx="16" cy="16" r="15" fill="#FFD700"/><path d="M16 1C9.5 1 4 5.5 2 11.5c3-2 7-3 11-3s8 1 11 3C23 5.5 17.5 1 16 1z" fill="none" stroke="#fff" stroke-width="1.5"/><path d="M16 31c6.5 0 12-4.5 14-10.5c-3 2-7 3-11 3s-8-1-11-3C4 26.5 9.5 31 16 31z" fill="none" stroke="#fff" stroke-width="1.5"/><path d="M1 16c0-6.5 4.5-12 10.5-14-2 3-3 7-3 11s1 8 3 11C5.5 23 1 17.5 1 16z" fill="none" stroke="#fff" stroke-width="1.5"/><path d="M31 16c0 6.5-4.5 12-10.5 14 2-3 3-7 3-11s-1-8-3-11c6 2 10.5 7.5 10.5 14z" fill="none" stroke="#fff" stroke-width="1.5"/></svg>